HIERARCHY
ROOT Hips
{
	OFFSET 0.00000 0.00000 0.00000
	CHANNELS 6 Xposition Yposition Zposition Zrotation Yrotation Xrotation 
	JOINT LHipJoint
	{
		OFFSET 0 0 0
		CHANNELS 3 Zrotation Yrotation Xrotation
		JOINT LeftUpLeg
		{
			OFFSET 1.28366 -1.58472 0.87544
			CHANNELS 3 Zrotation Yrotation Xrotation
			JOINT LeftLeg
			{
				OFFSET 2.18587 -6.00562 0.00000
				CHANNELS 3 Zrotation Yrotation Xrotation
				JOINT LeftFoot
				{
					OFFSET 2.39085 -6.56880 0.00000
					CHANNELS 3 Zrotation Yrotation Xrotation
					JOINT LeftToeBase
					{
						OFFSET 0.12003 -0.32979 2.03101
						CHANNELS 3 Zrotation Yrotation Xrotation
						End Site
						{
							OFFSET 0.00000 -0.00000 1.04074
						}
					}
				}
			}
		}
	}
	JOINT RHipJoint
	{
		OFFSET 0 0 0
		CHANNELS 3 Zrotation Yrotation Xrotation
		JOINT RightUpLeg
		{
			OFFSET -1.21795 -1.58472 0.87544
			CHANNELS 3 Zrotation Yrotation Xrotation
			JOINT RightLeg
			{
				OFFSET -2.22714 -6.11902 0.00000
				CHANNELS 3 Zrotation Yrotation Xrotation
				JOINT RightFoot
				{
					OFFSET -2.40306 -6.60235 0.00000
					CHANNELS 3 Zrotation Yrotation Xrotation
					JOINT RightToeBase
					{
						OFFSET -0.15519 -0.42640 1.91430
						CHANNELS 3 Zrotation Yrotation Xrotation
						End Site
						{
							OFFSET -0.00000 -0.00000 0.99082
						}
					}
				}
			}
		}
	}
	JOINT LowerBack
	{
		OFFSET 0 0 0
		CHANNELS 3 Zrotation Yrotation Xrotation
		JOINT Spine
		{
			OFFSET 0.01180 1.76430 -0.06387
			CHANNELS 3 Zrotation Yrotation Xrotation
			JOINT Spine1
			{
				OFFSET -0.00388 1.74651 0.09536
				CHANNELS 3 Zrotation Yrotation Xrotation
				JOINT Neck
				{
					OFFSET 0 0 0
					CHANNELS 3 Zrotation Yrotation Xrotation
					JOINT Neck1
					{
						OFFSET 0.04111 1.46174 0.14397
						CHANNELS 3 Zrotation Yrotation Xrotation
						JOINT Head
						{
							OFFSET 0.00502 1.44580 -0.31711
							CHANNELS 3 Zrotation Yrotation Xrotation
							End Site
							{
								OFFSET -0.00395 1.49251 -0.12327
							}
						}
					}
				}
				JOINT LeftShoulder
				{
					OFFSET 0 0 0
					CHANNELS 3 Zrotation Yrotation Xrotation
					JOINT LeftArm
					{
						OFFSET 2.70917 1.34870 -0.15417
						CHANNELS 3 Zrotation Yrotation Xrotation
						JOINT LeftForeArm
						{
							OFFSET 4.46610 -0.00000 -0.00000
							CHANNELS 3 Zrotation Yrotation Xrotation
							JOINT LeftHand
							{
								OFFSET 3.41414 -0.00000 0.00000
								CHANNELS 3 Zrotation Yrotation Xrotation
								JOINT LeftFingerBase
								{
									OFFSET 0 0 0
									CHANNELS 3 Zrotation Yrotation Xrotation
									JOINT LeftHandIndex1
									{
										OFFSET 0.32830 -0.00000 0.00000
										CHANNELS 3 Zrotation Yrotation Xrotation
										End Site
										{
											OFFSET 0.26468 -0.00000 0.00000
										}
									}
								}
								JOINT LThumb
								{
									OFFSET 0 0 0
									CHANNELS 3 Zrotation Yrotation Xrotation
									End Site
									{
										OFFSET 0.26872 -0.00000 0.26872
									}
								}
							}
						}
					}
				}
				JOINT RightShoulder
				{
					OFFSET 0 0 0
					CHANNELS 3 Zrotation Yrotation Xrotation
					JOINT RightArm
					{
						OFFSET -3.06316 1.13725 -0.10883
						CHANNELS 3 Zrotation Yrotation Xrotation
						JOINT RightForeArm
						{
							OFFSET -4.40431 -0.00000 0.00000
							CHANNELS 3 Zrotation Yrotation Xrotation
							JOINT RightHand
							{
								OFFSET -3.04688 -0.00000 0.00000
								CHANNELS 3 Zrotation Yrotation Xrotation
								JOINT RightFingerBase
								{
									OFFSET 0 0 0
									CHANNELS 3 Zrotation Yrotation Xrotation
									JOINT RightHandIndex1
									{
										OFFSET -0.50049 -0.00000 0.00000
										CHANNELS 3 Zrotation Yrotation Xrotation
										End Site
										{
											OFFSET -0.40351 -0.00000 0.00000
										}
									}
								}
								JOINT RThumb
								{
									OFFSET 0 0 0
									CHANNELS 3 Zrotation Yrotation Xrotation
									End Site
									{
										OFFSET -0.40967 -0.00000 0.40967
									}
								}
							}
						}
					}
				}
			}
		}
	}
}
MOTION
Frames: 10
Frame Time: .0083333
-10.1827 14.7178 16.0792 -171.3060 -19.8163 -176.6200 0.0000 0.0000 0.0000 8.7924 21.7306 -69.2431 23.3725 19.7251 99.9042 2.6763 -4.3681 32.6826 0.7009 5.3513 14.9132 0.0000 0.0000 0.0000 21.0578 -16.2436 -24.8967 -5.3727 -13.7916 42.4091 -1.5242 -2.7936 -24.4715 -0.3113 3.5871 -9.9179 -2.4968 2.4777 14.9832 0.5146 2.8362 -5.9101 1.2068 1.5544 -15.3072 10.0759 12.6810 -15.2415 1.8741 14.4816 11.5614 0.5712 7.5553 6.5691 0.0000 0.0000 0.0000 0.5181 -55.0780 -25.0361 42.9420 -49.7195 -20.6565 -0.0000 0.0000 -66.0369 2.6686 37.9734 1.6427 -7.1250 0.0000 -0.0000 -39.5372 63.6249 -19.3356 0.0000 0.0000 0.0000 29.4552 -16.0215 71.7525 -77.8555 59.4353 -49.5025 0.0000 0.0000 23.2198 -78.1258 30.5957 -67.5541 7.1250 -0.0000 -0.0000 -25.7228 36.2621 -37.8415
-10.0565 14.7067 16.0703 -170.9180 -19.5401 -177.1940 0.0000 0.0000 0.0000 9.3930 23.9267 -71.5368 25.2594 19.3235 105.5460 2.9797 -5.0323 34.6600 0.7438 5.5090 15.3663 0.0000 0.0000 0.0000 21.8706 -16.0156 -24.0534 -5.2615 -13.6723 41.9404 -1.6589 -2.3620 -25.2818 -0.2249 3.0528 -8.4258 -2.6123 2.5176 15.6343 0.6714 2.8785 -5.8356 1.4149 1.5979 -15.6451 10.0962 12.6247 -15.2423 2.2428 14.3323 11.2189 0.6486 7.5011 6.4268 -0.0000 -0.0000 0.0000 2.2001 -54.9137 -26.6357 42.3076 -49.3792 -20.1738 -0.0000 0.0000 -65.5291 3.1408 38.0794 1.9383 -7.1250 0.0000 -0.0000 -39.2126 63.8329 -19.3399 -0.0000 -0.0000 0.0000 29.3328 -16.6171 71.3887 -75.6057 59.2024 -47.5676 0.0000 0.0000 22.7937 -77.5591 30.7252 -66.6457 7.1250 -0.0000 -0.0000 -25.2719 35.6772 -37.0933
-9.9371 14.6958 16.0625 -170.7240 -19.0513 -177.6510 0.0000 0.0000 0.0000 9.7621 26.6038 -73.6935 27.0788 18.7535 111.1194 3.2436 -5.8290 36.4088 0.7803 5.6398 15.7427 0.0000 0.0000 0.0000 22.4301 -15.4438 -23.2413 -5.1953 -13.6004 41.6595 -1.7816 -1.9318 -25.9822 -0.1519 2.5112 -6.9206 -2.8461 2.6007 16.1981 0.7434 2.9407 -5.7602 1.5913 1.6566 -15.9314 10.1162 12.5668 -15.2600 2.6532 14.1708 10.9355 0.7410 7.4433 6.3042 0.0000 0.0000 0.0000 3.6707 -54.6342 -27.9963 41.8188 -49.1113 -19.8034 -0.0000 0.0000 -64.9371 3.7686 38.2213 2.3337 -7.1250 0.0000 -0.0000 -38.7827 64.1128 -19.3453 0.0000 0.0000 0.0000 29.3702 -17.0263 70.9721 -73.3497 58.9261 -45.6324 0.0000 0.0000 22.2335 -76.8386 30.8606 -65.4933 7.1250 -0.0000 -0.0000 -24.7245 34.9240 -36.1799
-9.8245 14.6868 16.0548 -170.7250 -18.4061 -177.9870 0.0000 0.0000 0.0000 9.9042 29.7751 -75.7091 28.7895 18.0366 116.5367 3.5035 -6.7784 38.1518 0.8325 5.8209 16.2656 0.0000 0.0000 0.0000 22.7613 -14.6704 -22.5242 -5.1723 -13.5752 41.5618 -1.8886 -1.4718 -26.5473 -0.0916 1.9521 -5.3732 -3.2029 2.7132 16.6583 0.7396 3.0024 -5.6823 1.7542 1.7220 -16.1534 10.1247 12.5031 -15.2858 3.0947 13.9974 10.6931 0.8454 7.3805 6.1940 -0.0000 0.0000 0.0000 4.9204 -54.2477 -29.1003 41.4804 -48.9229 -19.5480 -0.0000 0.0000 -64.2989 4.5790 38.4205 2.8492 -7.1250 0.0000 -0.0000 -38.2478 64.4891 -19.3694 -0.0000 0.0000 0.0000 29.5324 -17.2611 70.5141 -71.1201 58.6094 -43.7259 0.0000 0.0000 21.5888 -75.9481 30.8973 -64.0146 7.1250 -0.0000 -0.0000 -24.1221 33.8969 -35.1591
-9.7180 14.6797 16.0465 -170.8870 -17.6588 -178.2160 0.0000 0.0000 0.0000 9.8200 33.4835 -77.5994 30.3644 17.1998 121.7366 3.7344 -8.1743 39.9275 0.8547 5.8958 16.4825 0.0000 0.0000 0.0000 22.9212 -13.7281 -21.9095 -5.1866 -13.5909 41.6226 -1.9788 -1.0528 -27.0049 -0.0438 1.3500 -3.7124 -3.6594 2.8432 17.0055 0.6781 3.0550 -5.5982 1.9139 1.7888 -16.2998 10.1129 12.4289 -15.3174 3.5456 13.8122 10.4797 0.9557 7.3112 6.0929 -0.0000 -0.0000 0.0000 5.9483 -53.7683 -29.9346 41.3026 -48.8230 -19.4141 -0.0000 0.0000 -63.6673 5.6322 38.6833 3.5272 -7.1250 0.0000 -0.0000 -37.5548 64.9860 -19.3958 -0.0000 -0.0000 0.0000 29.7770 -17.3394 70.0272 -69.0021 58.2666 -41.9211 0.0000 0.0000 20.7729 -74.8422 30.8381 -62.1447 7.1250 -0.0000 -0.0000 -23.4412 32.5513 -33.9820
-9.6165 14.6748 16.0372 -171.1680 -16.8710 -178.3570 0.0000 0.0000 0.0000 9.5492 37.7432 -79.3819 31.7871 16.2736 126.6741 3.9319 -10.0511 41.7789 0.8501 5.8805 16.4382 0.0000 0.0000 0.0000 22.9698 -12.6947 -21.4054 -5.2286 -13.6367 41.8013 -2.0530 -0.7195 -27.3822 -0.0123 0.7171 -1.9707 -4.1938 2.9767 17.2428 0.5804 3.0881 -5.5070 2.0860 1.8512 -16.3710 10.0791 12.3418 -15.3541 3.9897 13.6155 10.2891 1.0670 7.2344 6.0000 0.0000 -0.0000 0.0000 6.7579 -53.2102 -30.4800 41.2978 -48.8202 -19.4104 -0.0000 0.0000 -63.1009 6.9501 39.0552 4.3920 -7.1250 0.0000 -0.0000 -36.7450 65.6492 -19.4765 0.0000 -0.0000 0.0000 30.0566 -17.2811 69.5345 -67.0631 57.9157 -40.2750 0.0000 0.0000 19.7482 -73.4783 30.6470 -59.8045 7.1250 -0.0000 -0.0000 -22.6788 30.8141 -32.6268
-9.5192 14.6716 16.0263 -171.5120 -16.0895 -178.4390 0.0000 0.0000 0.0000 9.1553 42.5796 -81.0715 33.0545 15.2858 131.3323 4.0747 -12.2743 43.5977 0.8363 5.8336 16.3023 0.0000 0.0000 0.0000 22.9737 -11.6246 -20.9958 -5.2883 -13.7012 42.0536 -2.1113 -0.5491 -27.7073 -0.0004 0.1308 -0.3595 -4.7679 3.1022 17.3794 0.4685 3.0997 -5.4086 2.2749 1.9056 -16.3711 10.0150 12.2374 -15.3902 4.4203 13.4056 10.1167 1.1778 7.1490 5.9127 -0.0000 -0.0000 0.0000 7.3577 -52.5853 -30.7118 41.4738 -48.9192 -19.5430 -0.0000 0.0000 -62.6392 8.6112 39.5187 5.5042 -7.1250 0.0000 -0.0000 -35.7159 66.4948 -19.5469 -0.0000 -0.0000 0.0000 30.3254 -17.0960 69.0626 -65.3902 57.5831 -38.8602 0.0000 0.0000 18.4219 -71.7249 30.3196 -56.8088 7.1250 -0.0000 -0.0000 -21.7684 28.5532 -30.9600
-9.4249 14.6697 16.0139 -171.8750 -15.3504 -178.4820 0.0000 0.0000 0.0000 8.6979 47.9936 -82.6615 34.1671 14.2644 135.6926 4.1221 -14.7082 45.1996 0.8156 5.7627 16.0974 0.0000 0.0000 0.0000 22.9795 -10.5495 -20.6560 -5.3565 -13.7744 42.3410 -2.1589 -0.5098 -28.0042 -0.0047 -0.4447 1.2219 -5.3475 3.2100 17.4270 0.3617 3.0896 -5.3020 2.4833 1.9492 -16.3049 9.9248 12.1153 -15.4184 4.8290 13.1837 9.9574 1.2844 7.0551 5.8292 0.0000 -0.0000 0.0000 7.7657 -51.8993 -30.6060 41.8373 -49.1215 -19.8174 -0.0000 0.0000 -62.2540 10.6310 40.0401 6.8854 -7.1250 0.0000 -0.0000 -34.3954 67.5101 -19.5284 0.0000 -0.0000 0.0000 30.5529 -16.7889 68.6124 -64.0423 57.2943 -37.7242 0.0000 0.0000 16.6960 -69.4064 29.9106 -53.0007 7.1250 -0.0000 -0.0000 -20.6056 25.6924 -28.7943
-9.3328 14.6679 16.0001 -172.2100 -14.6912 -178.5010 0.0000 0.0000 0.0000 8.2561 53.8984 -84.1267 35.1288 13.2373 139.7366 4.0286 -17.2262 46.3941 0.7916 5.6795 15.8574 0.0000 0.0000 0.0000 23.0397 -9.5135 -20.3767 -5.4269 -13.8489 42.6357 -2.1963 -0.6434 -28.2911 -0.0206 -0.9262 2.5457 -5.8975 3.2881 17.3993 0.2750 3.0540 -5.1919 2.7096 1.9778 -16.1841 9.8011 11.9704 -15.4267 5.2196 12.9462 9.8037 1.3877 6.9510 5.7444 -0.0000 0.0000 0.0000 8.0021 -51.1588 -30.1411 42.3817 -49.4193 -20.2300 -0.0000 0.0000 -61.8702 12.9255 40.5770 8.4905 -7.1250 0.0000 -0.0000 -32.7933 68.6473 -19.3620 -0.0000 0.0000 0.0000 30.7248 -16.3644 68.1748 -63.0668 57.0733 -36.9043 0.0000 0.0000 14.5645 -66.4091 29.3994 -48.3437 7.1250 -0.0000 -0.0000 -19.1567 22.2102 -26.0760
-9.2423 14.6660 15.9846 -172.4880 -14.1335 -178.5180 0.0000 0.0000 0.0000 7.9824 60.0796 -85.3367 35.9420 12.2371 143.4239 3.7905 -19.6475 47.1099 0.7725 5.6120 15.6626 0.0000 0.0000 0.0000 23.1695 -8.5588 -20.1365 -5.4956 -13.9211 42.9223 -2.2314 -0.8248 -28.5791 -0.0476 -1.4079 3.8719 -6.3928 3.3286 17.3213 0.2172 2.9896 -5.0780 2.9495 1.9883 -16.0221 9.6498 11.8024 -15.4104 5.5963 12.6909 9.6617 1.4880 6.8364 5.6598 0.0000 -0.0000 0.0000 8.0800 -50.3667 -29.3045 43.0995 -49.8027 -20.7767 -0.0000 0.0000 -61.4048 15.3418 41.0879 10.2212 -7.1250 0.0000 -0.0000 -30.9844 69.8334 -19.0193 0.0000 -0.0000 0.0000 30.8427 -15.8186 67.7298 -62.4418 56.9263 -36.3801 0.0000 0.0000 12.1131 -62.7614 28.7715 -43.0758 7.1250 -0.0000 -0.0000 -17.4469 18.2852 -22.9072
